<svg width="68" height="68" viewBox="0 0 68 68" fill="none" xmlns="http://www.w3.org/2000/svg">
<g clip-path="url(#clip0_3_901)">
<path d="M21.5396 12.1557C14.0612 16.3704 11.4095 25.8936 15.634 33.3665C18.4424 38.3343 23.5722 41.1646 28.8924 41.2671C29.8371 41.2853 30.6993 41.81 31.1644 42.6326L33.0293 45.9316C33.1293 45.8027 33.256 45.6909 33.4069 45.6056L44.0438 39.5926C44.1948 39.5073 44.3558 39.4565 44.5178 39.4372L42.6529 36.1381C42.1824 35.3058 42.1947 34.2897 42.6702 33.4603C45.3109 28.8532 45.5249 23.0119 42.7221 18.0537C38.497 10.5794 29.0171 7.94163 21.5396 12.1557Z" fill="#FFE181"/>
<path d="M34.744 40.6091C34.279 39.7865 33.4168 39.2617 32.472 39.2435C27.1517 39.141 22.022 36.3108 19.2136 31.343C15.3349 24.4818 17.2535 15.8928 23.3817 11.2704C22.7573 11.522 22.1419 11.8163 21.5397 12.1557C14.0612 16.3703 11.4095 25.8935 15.634 33.3665C18.4424 38.3343 23.5722 41.1646 28.8924 41.2671C29.8372 41.2852 30.6994 41.8101 31.1644 42.6326L33.0293 45.9316C33.1293 45.8027 33.256 45.6909 33.4069 45.6056L36.5607 43.8228L34.744 40.6091Z" fill="#FEC458"/>
<path d="M40.7888 42.2897C40.43 42.4925 39.9749 42.3661 39.7721 42.0073L36.4861 36.1944C36.1558 35.6102 36.0268 34.9227 36.1224 34.2585L36.3716 32.5297C36.4205 32.1905 36.3546 31.8395 36.186 31.5411L32.7567 25.4748C32.5539 25.1161 32.6803 24.6609 33.0391 24.4581C33.3978 24.2553 33.8529 24.3818 34.0557 24.7405L37.485 30.8068C37.8152 31.391 37.9443 32.0785 37.8486 32.7427L37.5994 34.4715C37.5505 34.8107 37.6164 35.1617 37.7851 35.4601L41.0711 41.273C41.2739 41.6317 41.1475 42.0869 40.7888 42.2897Z" fill="#FFB640"/>
<path d="M37.3957 44.2076C37.037 44.4104 36.5818 44.284 36.379 43.9252L33.093 38.1123C32.9244 37.814 32.6575 37.5765 32.3417 37.4434L30.7319 36.7655C30.1135 36.5051 29.591 36.0399 29.2608 35.4557L25.8315 29.3894C25.6287 29.0307 25.7551 28.5755 26.1139 28.3727C26.4726 28.1699 26.9278 28.2963 27.1305 28.6551L30.5598 34.7214C30.7285 35.0197 30.9952 35.2572 31.311 35.3902L32.9208 36.0681C33.5393 36.3286 34.0618 36.7938 34.392 37.3779L37.678 43.1908C37.8808 43.5496 37.7544 44.0048 37.3957 44.2076Z" fill="#FFB640"/>
<path d="M37.127 17.717C34.9434 15.495 31.8995 14.3257 28.7759 14.509C28.3646 14.5331 28.0115 14.2192 27.9874 13.8079C27.9632 13.3966 28.2773 13.0435 28.6884 13.0194C32.2421 12.8108 35.7058 14.1419 38.1912 16.671C38.4801 16.9649 38.4759 17.4374 38.182 17.7262C37.8884 18.0149 37.4159 18.0111 37.127 17.717Z" fill="#FFEAC8"/>
<path d="M41.4785 53.5927L41.7475 54.0685C42.563 55.5111 44.4106 56.0243 45.8532 55.2088C47.2958 54.3933 47.8089 52.5457 46.9933 51.103L46.7244 50.6272L41.4785 53.5927Z" fill="#8479C2"/>
<path d="M44.0955 52.7412L43.8265 52.2653L41.4785 53.5927L41.7475 54.0685C42.563 55.5111 44.4106 56.0243 45.8532 55.2088C46.2746 54.9705 46.6161 54.6438 46.8689 54.2652C45.7672 54.317 44.6728 53.7623 44.0955 52.7412Z" fill="#6E60B8"/>
<path d="M34.8299 26.1105L26.6065 30.7591C26.2478 30.9619 25.7926 30.8355 25.5898 30.4768C25.387 30.1181 25.5134 29.6629 25.8722 29.4601L34.0956 24.8115C34.4543 24.6087 34.9095 24.7351 35.1123 25.0938C35.3151 25.4525 35.1886 25.9077 34.8299 26.1105Z" fill="#FEC458"/>
<path d="M12.6544 35.4501L10.42 36.7132C10.0612 36.916 9.60608 36.7896 9.4033 36.4309C9.20051 36.0722 9.32692 35.617 9.68564 35.4142L11.9201 34.1511C12.2788 33.9483 12.734 34.0747 12.9368 34.4334C13.1395 34.7921 13.0131 35.2473 12.6544 35.4501Z" fill="#FEC458"/>
<path d="M10.9619 30.9679L8.42466 31.356C8.01736 31.4183 7.63659 31.1385 7.5743 30.7312C7.51209 30.3239 7.79175 29.9434 8.19904 29.8809L10.7363 29.4928C11.1436 29.4305 11.5244 29.7102 11.5867 30.1175C11.6489 30.5245 11.3696 30.9053 10.9619 30.9679Z" fill="#FEC458"/>
<path d="M13.3436 40.937C13.0268 40.6736 12.9835 40.2031 13.2469 39.8863L14.8878 37.9125C15.151 37.5957 15.6216 37.5522 15.9385 37.8157C16.2554 38.0791 16.2987 38.5496 16.0353 38.8664L14.3944 40.8402C14.1309 41.1571 13.6606 41.2004 13.3436 40.937Z" fill="#FEC458"/>
<path d="M48.2779 15.3123L46.0435 16.5754C45.6848 16.7782 45.2296 16.6518 45.0268 16.2931C44.824 15.9343 44.9505 15.4792 45.3092 15.2764L47.5436 14.0133C47.9023 13.8105 48.3575 13.9369 48.5603 14.2956C48.763 14.6543 48.6367 15.1095 48.2779 15.3123Z" fill="#FEC458"/>
<path d="M42.0253 12.9108C41.7084 12.6474 41.6651 12.177 41.9285 11.8601L43.5694 9.88632C43.8327 9.56965 44.3032 9.52606 44.6201 9.78954C44.937 10.0529 44.9803 10.5234 44.7169 10.8403L43.0761 12.8141C42.8125 13.131 42.3423 13.1743 42.0253 12.9108Z" fill="#FEC458"/>
<path d="M49.7647 20.8457L47.2274 21.2338C46.8201 21.2961 46.4394 21.0164 46.3771 20.6091C46.3149 20.2018 46.5944 19.8211 47.0018 19.7587L49.5391 19.3706C49.9464 19.3084 50.3272 19.5881 50.3894 19.9954C50.4516 20.4024 50.1723 20.7832 49.7647 20.8457Z" fill="#FEC458"/>
<path d="M46.7502 46.4007L37.8444 51.4351C37.2229 51.7865 37.0031 52.5779 37.3544 53.1993L37.8967 54.1587C38.248 54.7801 39.0394 54.9999 39.6609 54.6485L48.5668 49.6141C49.1882 49.2628 49.408 48.4714 49.0567 47.85L48.5144 46.8906C48.1631 46.2692 47.3717 46.0494 46.7502 46.4007Z" fill="#EFECEF"/>
<path d="M47.6584 48.0075L38.7526 53.0419C38.2437 53.3296 37.6211 53.2339 37.2193 52.8486C37.2465 52.9687 37.2908 53.0869 37.3544 53.1994L37.8967 54.1588C38.248 54.7802 39.0394 55 39.6609 54.6486L48.5668 49.6142C49.1882 49.2629 49.408 48.4715 49.0567 47.8501L48.5144 46.8907C48.4507 46.7782 48.3723 46.6793 48.2835 46.5941C48.4063 47.137 48.1674 47.7198 47.6584 48.0075Z" fill="#E2DFE2"/>
<path d="M45.8236 42.7412L35.1866 48.7543C34.5652 49.1056 34.3454 49.8969 34.6967 50.5184L35.239 51.4778C35.5903 52.0993 36.3817 52.319 37.0032 51.9678L47.6402 45.9547C48.2617 45.6034 48.4815 44.812 48.1301 44.1905L47.5878 43.2311C47.2365 42.6097 46.4451 42.3899 45.8236 42.7412Z" fill="#EFECEF"/>
<path d="M46.732 44.3481L36.0949 50.3611C35.586 50.6488 34.9634 50.553 34.5616 50.1677C34.5888 50.2878 34.633 50.406 34.6966 50.5185L35.239 51.4779C35.5903 52.0994 36.3817 52.3192 37.0031 51.9679L47.6401 45.9548C48.2617 45.6035 48.4814 44.8121 48.1301 44.1906L47.5878 43.2312C47.5241 43.1186 47.4458 43.0198 47.3569 42.9346C47.4799 43.4776 47.2409 44.0604 46.732 44.3481Z" fill="#E2DFE2"/>
<path d="M44.0311 39.5709L33.3941 45.584C32.7727 45.9353 32.5529 46.7267 32.9042 47.3482L33.4466 48.3075C33.7979 48.929 34.5892 49.1488 35.2107 48.7975L45.8477 42.7844C46.4692 42.4331 46.689 41.6417 46.3377 41.0203L45.7954 40.0609C45.444 39.4394 44.6526 39.2196 44.0311 39.5709Z" fill="#EFECEF"/>
<path d="M44.9394 41.1777L34.3024 47.1907C33.7935 47.4785 33.1709 47.3827 32.7691 46.9974C32.7963 47.1175 32.8406 47.2357 32.9042 47.3482L33.4465 48.3076C33.7978 48.929 34.5892 49.1488 35.2106 48.7975L45.8476 42.7845C46.4691 42.4331 46.6889 41.6417 46.3376 41.0203L45.7953 40.0609C45.7317 39.9484 45.6532 39.8495 45.5644 39.7644C45.6874 40.3072 45.4484 40.89 44.9394 41.1777Z" fill="#E2DFE2"/>
</g>
<defs>
<clipPath id="clip0_3_901">
<rect width="49.444" height="49.444" fill="white" transform="translate(0 24.3318) rotate(-29.4792)"/>
</clipPath>
</defs>
</svg>
